{
	"asset":{
		"generator":"Khronos glTF Blender I/O v4.0.43",
		"version":"2.0"
	},
	"scene":0,
	"scenes":[
		{
			"name":"Scene",
			"nodes":[
				0
			]
		}
	],
	"nodes":[
		{
			"mesh":0,
			"name":"Object001_Object001_mtl_0"
		}
	],
	"materials":[
		{
			"doubleSided":true,
			"name":"Object001_mtl",
			"pbrMetallicRoughness":{
				"baseColorTexture":{
					"index":0
				},
				"metallicFactor":0.550000011920929,
				"roughnessFactor":0.5699999928474426
			}
		}
	],
	"meshes":[
		{
			"name":"Object001_Object001_mtl_0",
			"primitives":[
				{
					"attributes":{
						"POSITION":0,
						"NORMAL":1,
						"TEXCOORD_0":2
					},
					"indices":3,
					"material":0
				}
			]
		}
	],
	"textures":[
		{
			"sampler":0,
			"source":0
		}
	],
	"images":[
		{
			"mimeType":"image/jpeg",
			"name":"Object001_mtl_baseColor",
			"uri":"Object001_mtl_baseColor.jpg"
		}
	],
	"accessors":[
		{
			"bufferView":0,
			"componentType":5126,
			"count":629,
			"max":[
				1.7784125804901123,
				40.572120666503906,
				6.125025749206543
			],
			"min":[
				-1.7896838188171387,
				-16.240623474121094,
				-6.9009199142456055
			],
			"type":"VEC3"
		},
		{
			"bufferView":1,
			"componentType":5126,
			"count":629,
			"type":"VEC3"
		},
		{
			"bufferView":2,
			"componentType":5126,
			"count":629,
			"type":"VEC2"
		},
		{
			"bufferView":3,
			"componentType":5123,
			"count":1239,
			"type":"SCALAR"
		}
	],
	"bufferViews":[
		{
			"buffer":0,
			"byteLength":7548,
			"byteOffset":0,
			"target":34962
		},
		{
			"buffer":0,
			"byteLength":7548,
			"byteOffset":7548,
			"target":34962
		},
		{
			"buffer":0,
			"byteLength":5032,
			"byteOffset":15096,
			"target":34962
		},
		{
			"buffer":0,
			"byteLength":2478,
			"byteOffset":20128,
			"target":34963
		}
	],
	"samplers":[
		{
			"magFilter":9729,
			"minFilter":9987
		}
	],
	"buffers":[
		{
			"byteLength":22608,
			"uri":"scene.bin"
		}
	]
}
